<svg width="77" height="64" viewBox="0 0 77 64" fill="none" xmlns="http://www.w3.org/2000/svg">
<path d="M11.6116 40.2292C17.0088 58.5373 41.4224 71.1062 60.1827 53.3264" stroke="white" stroke-width="2.65524" stroke-linecap="round" stroke-linejoin="round"/>
<path d="M12.293 20.7934C-4.15393 25.088 -4.56591 36.258 38.619 39.0022" stroke="white" stroke-width="2.65524" stroke-linecap="round" stroke-linejoin="round"/>
<path d="M36.5993 12.7424C38.26 12.7424 39.6063 11.3962 39.6063 9.73549C39.6063 8.0748 38.26 6.72855 36.5993 6.72855C34.9387 6.72855 33.5924 8.0748 33.5924 9.73549C33.5924 11.3962 34.9387 12.7424 36.5993 12.7424Z" stroke="white" stroke-width="0.885081" stroke-linecap="round" stroke-linejoin="round"/>
<path d="M49.2922 26.4474C51.6172 26.4474 53.502 24.5627 53.502 22.2377C53.502 19.9127 51.6172 18.028 49.2922 18.028C46.9673 18.028 45.0825 19.9127 45.0825 22.2377C45.0825 24.5627 46.9673 26.4474 49.2922 26.4474Z" stroke="white" stroke-width="0.885081" stroke-linecap="round" stroke-linejoin="round"/>
<path d="M29.4953 50.9041C30.9421 50.9041 32.1149 49.7313 32.1149 48.2845C32.1149 46.8377 30.9421 45.6648 29.4953 45.6648C28.0485 45.6648 26.8756 46.8377 26.8756 48.2845C26.8756 49.7313 28.0485 50.9041 29.4953 50.9041Z" stroke="white" stroke-width="0.885081" stroke-linecap="round" stroke-linejoin="round"/>
<path d="M44.5251 54.4652C45.909 54.4652 47.0309 53.3433 47.0309 51.9594C47.0309 50.5755 45.909 49.4536 44.5251 49.4536C43.1412 49.4536 42.0193 50.5755 42.0193 51.9594C42.0193 53.3433 43.1412 54.4652 44.5251 54.4652Z" stroke="white" stroke-width="0.885081" stroke-linecap="round" stroke-linejoin="round"/>
<path d="M23.7715 29.7444C26.3733 29.7444 28.4824 27.6353 28.4824 25.0336C28.4824 22.4318 26.3733 20.3227 23.7715 20.3227C21.1698 20.3227 19.0607 22.4318 19.0607 25.0336C19.0607 27.6353 21.1698 29.7444 23.7715 29.7444Z" stroke="white" stroke-width="0.885081" stroke-linecap="round" stroke-linejoin="round"/>
<path d="M76.7752 22.2961C76.6517 22.2487 68.146 25.0815 57.8736 28.5913C41.4559 34.2009 39.1902 35.0158 39.1437 35.3279C39.0978 35.6351 39.5415 35.9086 42.4378 37.3581L45.7848 39.0331L58.2351 33.0687C65.0827 29.7883 70.7981 27.125 70.9359 27.1502C71.0738 27.1752 71.2108 27.3217 71.2405 27.4757C71.2996 27.7828 71.3811 27.7131 60.582 36.6082C56.7438 39.7696 53.6546 42.4344 53.6251 42.6093C53.5814 42.8688 54.5499 43.4135 59.1388 45.7088C62.2006 47.2402 64.8244 48.4931 64.9696 48.4931C65.1303 48.4931 65.4215 48.0807 65.7129 47.4407C65.9765 46.8618 68.6239 41.123 71.596 34.6878C74.5681 28.2527 76.9999 22.8514 76.9999 22.6849C76.9999 22.5184 76.8987 22.3435 76.7752 22.2961V22.2961ZM62.8266 32.1949C62.0077 32.2951 46.9357 39.7757 46.8688 40.1184C46.8124 40.4078 49.1577 48.1036 49.4532 48.4918C49.6369 48.7331 49.7446 48.748 50.0235 48.5707C50.1328 48.5012 50.4875 47.1512 50.9052 45.4884C51.3229 43.8256 51.6472 42.2216 51.7731 42.1262C51.8991 42.0308 54.4957 39.7925 57.8483 37.0325C63.7633 32.1629 63.5283 32.454 62.8549 32.1956C62.8492 32.1934 62.8396 32.1933 62.8266 32.1949V32.1949ZM53.2673 43.7539C53.0812 43.8258 52.2144 47.1853 52.3145 47.4462C52.3527 47.5457 52.4505 47.6271 52.5319 47.6271C52.6133 47.6271 53.3915 47.1014 54.2615 46.4589C55.276 45.7097 55.8431 45.2188 55.8431 45.0904C55.8431 44.9468 55.5013 44.7218 54.6315 44.2926C53.9652 43.9638 53.3513 43.7214 53.2673 43.7539Z" fill="#FCFCFC"/>
<path d="M10.8864 29.6391C14.8507 -4.36552 55.6985 -6.01035 67.0627 19.3075" stroke="white" stroke-width="2.65524" stroke-linecap="round" stroke-linejoin="round"/>
<path d="M32.675 8.05255L30.4835 7.22974" stroke="white" stroke-width="0.885137" stroke-miterlimit="0" stroke-linecap="round" stroke-dasharray="1.77 1.77"/>
<path d="M29.8685 7.05322L27.677 6.23041" stroke="white" stroke-width="0.885137" stroke-miterlimit="0" stroke-linecap="round" stroke-dasharray="1.77 1.77"/>
<path d="M43.0804 16.1142L41.4514 14.4331" stroke="white" stroke-width="0.885137" stroke-miterlimit="0" stroke-linecap="round" stroke-dasharray="1.77 1.77"/>
<path d="M40.9708 14.0105L39.3418 12.3294" stroke="white" stroke-width="0.885137" stroke-miterlimit="0" stroke-linecap="round" stroke-dasharray="1.77 1.77"/>
<path d="M45.2233 18.2204L43.5942 16.5393" stroke="white" stroke-width="0.885137" stroke-miterlimit="0" stroke-linecap="round" stroke-dasharray="1.77 1.77"/>
<path d="M40.5442 23.3552L38.2152 23.5913" stroke="white" stroke-width="0.885137" stroke-miterlimit="0" stroke-linecap="round" stroke-dasharray="1.77 1.77"/>
<path d="M37.5857 23.7064L35.2567 23.9425" stroke="white" stroke-width="0.885137" stroke-miterlimit="0" stroke-linecap="round" stroke-dasharray="1.77 1.77"/>
<path d="M43.5251 22.9793L41.1962 23.2155" stroke="white" stroke-width="0.885137" stroke-miterlimit="0" stroke-linecap="round" stroke-dasharray="1.77 1.77"/>
<path d="M31.7203 24.4395L29.3914 24.6757" stroke="white" stroke-width="0.885137" stroke-miterlimit="0" stroke-linecap="round" stroke-dasharray="1.77 1.77"/>
<path d="M34.7013 24.0637L32.3723 24.2998" stroke="white" stroke-width="0.885137" stroke-miterlimit="0" stroke-linecap="round" stroke-dasharray="1.77 1.77"/>
<path d="M25.1391 32.6853L24.6034 30.4066" stroke="white" stroke-width="0.885137" stroke-miterlimit="0" stroke-linecap="round" stroke-dasharray="1.77 1.77"/>
<path d="M25.8979 35.5927L25.3622 33.3139" stroke="white" stroke-width="0.885137" stroke-miterlimit="0" stroke-linecap="round" stroke-dasharray="1.77 1.77"/>
<path d="M27.5147 41.5859L26.979 39.3071" stroke="white" stroke-width="0.885137" stroke-miterlimit="0" stroke-linecap="round" stroke-dasharray="1.77 1.77"/>
<path d="M28.2732 44.4932L27.7375 42.2144" stroke="white" stroke-width="0.885137" stroke-miterlimit="0" stroke-linecap="round" stroke-dasharray="1.77 1.77"/>
<path d="M34.9261 49.7654L32.6306 49.3069" stroke="white" stroke-width="0.885137" stroke-miterlimit="0" stroke-linecap="round" stroke-dasharray="1.77 1.77"/>
<path d="M37.8861 50.2821L35.5906 49.8235" stroke="white" stroke-width="0.885137" stroke-miterlimit="0" stroke-linecap="round" stroke-dasharray="1.77 1.77"/>
<path d="M40.7534 50.8813L38.4579 50.4227" stroke="white" stroke-width="0.885137" stroke-miterlimit="0" stroke-linecap="round" stroke-dasharray="1.77 1.77"/>
<path d="M42.4756 58.2174L41.781 60.4529" stroke="white" stroke-width="0.885137" stroke-miterlimit="0" stroke-linecap="round" stroke-dasharray="1.77 1.77"/>
<path d="M43.3695 55.4279L42.6749 57.6633" stroke="white" stroke-width="0.885137" stroke-miterlimit="0" stroke-linecap="round" stroke-dasharray="1.77 1.77"/>
</svg>
